<?xml version="1.0" encoding="utf-8"?>
<!-- Generator: Adobe Illustrator 22.1.0, SVG Export Plug-In . SVG Version: 6.00 Build 0)  -->
<svg version="1.1" id="Calque_1" xmlns="http://www.w3.org/2000/svg" xmlns:xlink="http://www.w3.org/1999/xlink" x="0px" y="0px"
	 width="30px" height="30px" viewBox="0 0 30 30" style="enable-background:new 0 0 30 30;" xml:space="preserve">
<style type="text/css">
	.st0{fill:#FFFFFF;}
</style>
<path d="M16.4,4.6V3.9h2.4c0.5,0,1-0.4,1-1V1c0-0.5-0.4-1-1-1c-0.5,0-1,0.4-1,1v1h-5.8V1c0-0.5-0.4-1-1-1s-1,0.4-1,1v1.9
	c0,0.5,0.4,1,1,1h2.4v0.8C7.9,5.4,3.5,10.2,3.5,16.1s4.4,10.7,10.1,11.5v1.2c0,0.7,0.5,1.2,1.2,1.2h0.4c0.7,0,1.2-0.5,1.2-1.2v-1.2
	c5.7-0.7,10.1-5.6,10.1-11.5S22.1,5.4,16.4,4.6z M15,19.6c-1.9,0-3.5-1.6-3.5-3.5s1.6-3.5,3.5-3.5s3.5,1.6,3.5,3.5
	S16.9,19.6,15,19.6z M6.4,16.1c0-4.3,3.1-7.8,7.2-8.5v2.2c-2.9,0.7-5,3.2-5,6.3s2.2,5.7,5,6.3v2.2C9.5,23.9,6.4,20.4,6.4,16.1z
	 M16.4,24.6v-2.2c2.9-0.7,5-3.2,5-6.3s-2.2-5.7-5-6.3V7.6c4.1,0.7,7.2,4.2,7.2,8.5C23.6,20.4,20.5,23.9,16.4,24.6z"/>
</svg>
