<?xml version="1.0" encoding="utf-8"?>
<!-- Generator: Adobe Illustrator 22.1.0, SVG Export Plug-In . SVG Version: 6.00 Build 0)  -->
<svg version="1.1" id="Calque_1" xmlns="http://www.w3.org/2000/svg" xmlns:xlink="http://www.w3.org/1999/xlink" x="0px" y="0px"
	 width="30px" height="30px" viewBox="0 0 30 30" style="enable-background:new 0 0 30 30;" xml:space="preserve">
<style type="text/css">
	.st0{fill:#FFFFFF;}
</style>
<g>
	<path d="M12.1,25.9c-3.6-0.3-6.7-1.5-8.9-4.4C0.6,18.2-0.1,14.3,0,10.3c0-0.2,0.2-0.5,0.4-0.5c2.4,0,4.8,0,7.3,0
		C6.8,15.8,7.5,21.4,12.1,25.9z"/>
	<path d="M22.3,9.7c0.7,0,1.2,0,1.7,0c1.8,0,3.5,0,5.3,0c0.4,0,0.7,0,0.7,0.5c0.1,4-0.6,7.9-3.1,11.2c-2.2,2.9-5.3,4.2-9.2,4.5
		C22.5,21.4,23.2,15.9,22.3,9.7z"/>
	<path d="M14.9,7C14,6.1,13,5,11.9,4c2,0,4.1,0,5.9,0C16.9,4.9,15.9,6,14.9,7z"/>
</g>
</svg>
