<?xml version="1.0" encoding="utf-8"?>
<!-- Generator: Adobe Illustrator 22.1.0, SVG Export Plug-In . SVG Version: 6.00 Build 0)  -->
<svg version="1.1" id="Calque_1" xmlns="http://www.w3.org/2000/svg" xmlns:xlink="http://www.w3.org/1999/xlink" x="0px" y="0px"
	 width="30px" height="30px" viewBox="0 0 30 30" style="enable-background:new 0 0 30 30;" xml:space="preserve">
<style type="text/css">
	.st0{fill:#FFFFFF;}
</style>
<g>
	<path d="M22.4,15.3c0.1,3.1-1.6,5.7-4.6,6.9c-1.3,0.5-1.7,1.1-1.7,2.5c0.1,1.8,0,3.5,0,5.4c-0.8,0-1.3,0-2.1,0c0-1.9-0.1-3.8,0-5.7
		c0-1.2-0.3-1.7-1.5-2.1c-2.9-1.1-4.7-3.4-4.9-6.6c-0.3-3.4,1.1-6,4.1-7.2c2-0.9,3.1-2,3.5-4.1c0.1,0.5,0.3,1,0.4,1.5
		c0.3,1.1,0.7,1.7,1.9,2.2c2.6,0.8,4,3,4.7,5.6c-1.1,0.7-1.8,0.7-2.4-0.7c-1.1-2.7-3.8-4-6.4-3.3c-2.5,0.7-4.3,3.3-4,6
		c0.2,2.5,2.3,4.7,4.8,5c3,0.3,5.1-1.2,6-4.2c0.2-0.6,0.9-1.1,1.4-1.6C22,14.9,22.2,15.1,22.4,15.3z"/>
	<path d="M15,0.7c-0.8,0.5-1.5,1.3-2.3,1.5C6.5,3.8,2.5,8.5,2.3,14.8c-0.2,5.2,3.4,10.5,8.6,12.4c0.1-1.2,0.3-2.3,0.4-3.5
		c2,0.1,2.3,1.1,1.7,6C7.8,29.9,0.3,24.3,0,14.7C-0.2,6.9,7-0.4,14.5,0C14.7,0.2,14.9,0.5,15,0.7z"/>
	<path d="M15.2,0.5C23-0.3,29.4,6.1,30,14.3c0.5,7.6-5.2,14.8-12.7,15.6c0-1.8-0.1-3.6,0.1-5.3c0.1-0.5,1-0.9,1.9-1.6
		c0.1,1.7,0.2,2.7,0.3,4c3.1-0.9,5.2-2.9,6.6-5.6c4.5-8.6-1.1-18.3-9.3-19.4C16.3,2,15.8,1.1,15.2,0.5z"/>
	<path d="M10,25.2c-4.5-2.5-6.6-7.1-6.3-11.8C4,10.7,5.2,8.8,6.9,7c1.8-2,4.2-3.1,6.9-3.5c0.4,1.2,0.2,1.9-1.1,2.4
		C11.3,6.4,9.6,7,8.8,8.2c-1.8,2.6-3.6,5.6-2.5,8.9c0.6,1.9,2,3.7,3.3,5.2C10.4,23.3,10.8,24,10,25.2z"/>
	<path d="M20,24.7c0.5-0.9,0.7-2,1.4-2.7c1.9-1.9,3.2-4.2,2.8-6.8c-0.4-2.3,0.4-2.6-2.5-6.6c-3-3-2.5-1.7-3.8-2.5
		c-0.7-0.5-1.4-1.2-2.4-2.2c3.7-0.5,8.5,3.7,9.6,6.4c1.5,3.6,1.5,4.9,0.2,9.6c-0.6,2.3-2.4,4.1-4.7,5.1C20.4,24.9,20.2,24.8,20,24.7
		z"/>
</g>
</svg>
