<?xml version="1.0" encoding="utf-8"?>
<!-- Generator: Adobe Illustrator 22.1.0, SVG Export Plug-In . SVG Version: 6.00 Build 0)  -->
<svg version="1.1" id="Calque_1" xmlns="http://www.w3.org/2000/svg" xmlns:xlink="http://www.w3.org/1999/xlink" x="0px" y="0px"
	 width="30px" height="30px" viewBox="0 0 30 30" style="enable-background:new 0 0 30 30;" xml:space="preserve">
<style type="text/css">
	.st0{fill:#FFFFFF;}
</style>
<g>
	<path d="M25.7,3.6c-0.5-0.5-1-0.9-1.6-1.3c-0.5-0.3-0.9-0.4-1.3,0.1c-0.4,0.5-0.2,1,0.2,1.4c0.3,0.3,0.6,0.6,1,1
		c0.9,0.9,1.6,1.9,2.2,3c-1.1,0.6-2,1.2-3,1.8c-1,0.6-1.9,1.2-2.9,1.7c-0.7-0.5-1.1-1.2-1-2.1c0-0.3,0-0.6,0-0.8
		c-0.2-3.1-3.4-5-6.1-3.6c-1.7,0.9-2.5,2.4-2.4,4.3c0.1,0.9-0.1,1.7-1,2.2C7.8,10.2,5.9,9,3.9,7.8c0.7-1.3,1.5-2.5,2.5-3.4
		c0.3-0.3,0.7-0.6,0.8-1c0.1-0.3,0-0.8-0.2-1.1c-0.2-0.2-0.7-0.3-1-0.1c-0.5,0.2-1,0.6-1.4,1c-6.4,6.4-6.3,18,0.4,24.1
		C5.3,27.6,5.6,27.9,6,28C6.3,28,6.9,28,7.1,27.8c0.2-0.2,0.2-0.8,0.1-1.1c-0.2-0.4-0.6-0.8-0.9-1.1c-0.8-0.9-1.5-1.9-2.4-2.9
		c2.2-1.1,4.1-2,6.1-3c0.5-0.3,0.7,0,0.7,0.5c0,0.5,0,1,0,1.5c0.1,2.4,1.9,4.2,4.2,4.2c2.3,0,4.2-1.9,4.3-4.2c0-0.5,0-1,0-1.5
		c0-0.5,0.2-0.8,0.8-0.5c0.5,0.2,0.9,0.4,1.4,0.7c1.5,0.7,3,1.5,4.6,2.3c-0.8,1-1.6,2-2.4,2.9c-0.3,0.4-0.6,0.7-0.9,1.1
		c-0.3,0.4-0.4,1,0.1,1.2c0.3,0.2,0.9,0.2,1.2,0.1c0.4-0.1,0.7-0.5,1-0.9C31.4,20.8,31.6,10.1,25.7,3.6z M2.7,10.6
		c2.2,0.9,4.2,1.8,6.2,2.6c0,1.2,0,1.2-1,1.1c-1.6-0.1-3.3-0.2-4.9-0.3c-0.3,0-0.5-0.1-0.9-0.1C2.2,12.8,2.4,11.8,2.7,10.6z M8.9,18
		c-2,0.7-3.9,1.3-6,2c-0.3-1.1-0.6-2.1-0.8-3.3c2.2-0.1,4.3-0.2,6.4-0.3c0.7,0,0.5,0.6,0.7,1C9.2,17.6,9,18,8.9,18z M14.9,6.6
		c1.2-0.1,2.2,1,2.2,2.3c-1.4,0-2.8,0-4.2,0C12.8,7.8,13.7,6.7,14.9,6.6z M15.1,23.6c-1.2,0.1-2.2-1-2.2-2.3c1.4,0,2.8,0,4.1,0
		C17.2,22.3,16.2,23.5,15.1,23.6z M15,19.3c-2,0-4.3-2.3-4.2-4.3c0-2,2.2-4.2,4.2-4.2c1.9,0,4.2,2.3,4.2,4.3
		C19.1,17.1,16.9,19.3,15,19.3z M21.4,13.1c1.9-0.9,3.8-1.7,5.9-2.5c0.2,1.1,0.4,1.9,0.6,2.8c0,0.2-0.2,0.5-0.4,0.5
		c-1.9,0.2-3.9,0.3-5.8,0.4c-0.2,0-0.5-0.2-0.5-0.4C21.2,13.7,21.3,13.2,21.4,13.1z M24.3,19.1c-1-0.3-1.9-0.6-2.9-1
		c-0.3-0.1-0.8-0.1-0.6-0.6c0.2-0.5,0.1-1.2,1-1.1c1.5,0.1,3,0.2,4.5,0.2c0.5,0,1,0.1,1.7,0.1c-0.3,1.1-0.5,2.1-0.8,3.2
		C26.1,19.7,25.2,19.4,24.3,19.1z"/>
</g>
</svg>
