<?xml version="1.0" encoding="utf-8"?>
<!-- Generator: Adobe Illustrator 22.1.0, SVG Export Plug-In . SVG Version: 6.00 Build 0)  -->
<svg version="1.1" id="Calque_1" xmlns="http://www.w3.org/2000/svg" xmlns:xlink="http://www.w3.org/1999/xlink" x="0px" y="0px"
	 width="30px" height="30px" viewBox="0 0 30 30" style="enable-background:new 0 0 30 30;" xml:space="preserve">
<style type="text/css">
	.st0{fill:#FFFFFF;}
</style>
<g>
	<path d="M5.3,5.3c0-1.7,1.2-2.9,2.9-2.9c1.6,0,3,1.4,2.9,3c0,1.6-1.4,2.9-3,2.8C6.6,8.2,5.3,7,5.3,5.3z"/>
	<path d="M24.7,24.7c0,1.6-1.3,2.9-3,2.9c-1.6,0-2.9-1.3-2.9-2.9c0-1.7,1.3-3,3-2.9C23.4,21.8,24.7,23.1,24.7,24.7z"/>
	<path d="M18.8,5.3c0-1.7,1.3-3,3-3c1.6,0,2.9,1.3,2.9,2.9c0,1.6-1.3,3-2.9,2.9C20,8.2,18.9,6.8,18.8,5.3z"/>
	<path d="M5.3,24.6c-0.1-1.6,1.4-2.9,2.8-2.9c1.7,0,3,1.3,3,2.9c0,1.4-1.1,3-3.1,2.9C6.5,27.5,5.2,26.1,5.3,24.6z"/>
	<path d="M14.9,5.8c-1.6,0-2.8-1.3-2.9-2.8c0-1.8,1.4-3,2.9-3c1.6,0,2.9,1.3,2.9,2.9C17.9,4.6,16.6,5.9,14.9,5.8z"/>
	<path d="M12.1,27c0-1.7,1.3-2.9,3-2.9c1.6,0,2.9,1.4,2.9,3c0,1.6-1.4,2.9-2.9,2.9C13.3,29.9,12.1,28.7,12.1,27z"/>
	<path d="M26.8,17.8L30,15l-3.2-2.8c-6.5-5.6-17.1-5.6-23.5,0L0,15l3.2,2.8C9.7,23.4,20.3,23.4,26.8,17.8z M12.1,15
		c0-1.7,1.3-3,3-2.9c1.6,0,2.9,1.3,2.9,3c0,1.6-1.3,2.9-3,2.9C13.4,17.9,12.1,16.6,12.1,15z"/>
</g>
</svg>
