<?xml version="1.0" encoding="utf-8"?>
<!-- Generator: Adobe Illustrator 22.1.0, SVG Export Plug-In . SVG Version: 6.00 Build 0)  -->
<svg version="1.1" id="Calque_1" xmlns="http://www.w3.org/2000/svg" xmlns:xlink="http://www.w3.org/1999/xlink" x="0px" y="0px"
	 width="30px" height="30px" viewBox="0 0 30 30" style="enable-background:new 0 0 30 30;" xml:space="preserve">
<style type="text/css">
	.st0{fill:#FFFFFF;}
</style>
<g>
	<path d="M15,22.8c0.1-0.1,0.1-0.2,0.2-0.4c0.3-0.6,0.6-1.3,0.9-1.9c0.5-0.9,1.3-1.6,2.2-2.1c1.5-0.8,3-1.7,4.3-2.8
		c1.6-1.3,2.6-2.9,2.9-4.8c0.2-1.1,0.4-2.3,0.5-3.4c0-0.1,0-0.3,0.1-0.4c0.2-0.2,0.3-0.4,0.6-0.5c0.3-0.1,0.4,0.2,0.5,0.4
		c1.2,1.9,2.1,3.9,2.6,6c0.3,1.2,0.1,2.3-0.1,3.4c-0.8,4-3.4,6.8-6.9,8.8c-2,1.1-4.1,1.7-6.4,1.8c-3.1,0.2-6-0.2-8.8-1.6
		c-3.2-1.6-5.6-4-6.9-7.3c-0.6-1.4-0.8-2.9-0.7-4.5c0.1-1.1,0.4-2.1,0.8-3.1C1.4,9.2,2,8,2.7,6.9c0.1-0.2,0.2-0.5,0.5-0.4
		C3.6,6.5,3.7,6.8,3.8,7C3.9,7.5,3.9,7.9,4,8.4c0.2,1.4,0.4,2.8,0.9,4.1c0.4,1.2,1.3,2.1,2.3,3c1.3,1.1,2.9,2.1,4.4,2.9
		c1,0.5,1.7,1.2,2.2,2.1c0.4,0.6,0.6,1.3,0.9,2C14.8,22.5,14.9,22.6,15,22.8C15,22.8,15,22.8,15,22.8z"/>
	<path d="M4.6,10c0-0.5,0.1-0.9,0.1-1.4c0.1-1.2,0.9-2.1,1.9-2.8C8,4.6,9.7,4,11.5,3.5c0.6-0.2,1.2-0.3,1.8-0.5
		c0.6-0.1,0.8,0,1.1,0.5c0.8,1.2,0.5,2.9-0.5,4c-0.6,0.6-1.2,1-2,1.4c-1,0.5-1.7,1.3-2.3,2.2c-0.4,0.6-0.3,1.2-0.2,1.8
		c0.1,0.5,0.3,1.1,0.4,1.6c0.1,0.6-0.2,0.9-0.8,0.8c-0.3-0.1-0.6-0.2-0.9-0.4c-1-0.8-2-1.6-2.9-2.5c-0.5-0.4-0.6-1-0.7-1.6
		C4.6,10.5,4.6,10.3,4.6,10C4.6,10,4.6,10,4.6,10z"/>
	<path d="M25.4,10c0,0.4-0.1,0.8-0.1,1.2c-0.1,0.5-0.3,1-0.8,1.4c-0.8,0.7-1.6,1.4-2.5,2.1c-0.3,0.3-0.7,0.4-1.1,0.6
		c-0.6,0.2-0.9-0.2-0.8-0.7c0.1-0.7,0.3-1.4,0.5-2c0.1-0.5,0-0.9-0.2-1.4C19.8,10.2,19,9.4,18,8.9c-0.9-0.5-1.8-1.1-2.4-2
		c-0.7-1.2-0.7-2.3,0-3.5c0.2-0.4,0.6-0.5,1-0.4c1.7,0.4,3.4,0.8,5,1.6c1,0.5,1.8,1.1,2.6,1.8c0.8,0.8,1.2,1.8,1.2,2.9
		C25.4,9.6,25.4,9.8,25.4,10C25.4,10,25.4,10,25.4,10z"/>
	<path d="M15.2,16.8c-2.2,0-4-1.7-4-3.8c0-2.1,1.8-3.9,4-3.9c2.2,0,4,1.7,4,3.9C19.2,15.1,17.4,16.8,15.2,16.8z"/>
</g>
</svg>
