<?xml version="1.0" encoding="utf-8"?>
<!-- Generator: Adobe Illustrator 22.1.0, SVG Export Plug-In . SVG Version: 6.00 Build 0)  -->
<svg version="1.1" id="Calque_1" xmlns="http://www.w3.org/2000/svg" xmlns:xlink="http://www.w3.org/1999/xlink" x="0px" y="0px"
	 width="30px" height="30px" viewBox="0 0 30 30" style="enable-background:new 0 0 30 30;" xml:space="preserve">
<style type="text/css">
	.st0{fill:#FFFFFF;}
</style>
<path d="M30,15c0-0.2-0.1-0.3-0.3-0.3l-6.5-0.3c0.2-0.7,0.5-1.1,1.1-1.4c0.2-0.1,0.5-0.2,0.7-0.2c0.4,0,0.8,0.1,1.1,0.4
	c0.1,0.1,0.2,0.2,0.3,0.3c0.1,0.1,0.2,0.2,0.3,0.3c0.2,0.2,0.4,0.3,0.6,0.4c0.2,0.1,0.5,0.2,0.8,0.2c0.1,0,0.1,0,0.2,0
	c0.1,0,0.2-0.1,0.3-0.2s0-0.2-0.1-0.3c-0.1-0.1-0.2-0.1-0.3-0.1c-0.3-0.1-0.6-0.3-0.9-0.6c-0.3-0.4-0.7-0.7-1.1-1.1
	c-0.4-0.3-0.9-0.5-1.4-0.5c-0.1,0-0.2,0-0.3,0c-1.4,0.2-2.4,1.1-2.7,2.6l0,0.1l-2-0.1c0.1-0.5,0.2-0.9,0.4-1.3
	c0.8-1.8,2.1-2.6,3.8-2.6c1.1,0,2.1,0.5,3,1.6l0.3,0.3c0.2,0.2,0.4,0.4,0.5,0.6c0.4,0.5,1,0.7,1.7,0.7c0.1,0,0.1,0,0.2,0
	c0.1,0,0.2-0.2,0.2-0.3c0-0.1-0.1-0.3-0.2-0.3c-0.5-0.1-0.9-0.4-1.3-1.1c-0.4-0.8-1.1-1.5-1.8-2c-0.5-0.4-1-0.6-1.6-0.7
	c-0.2,0-0.3-0.1-0.5-0.1l-0.2,0c0,0,0,0-0.1,0h-0.9c0,0,0,0-0.1,0l-0.3,0c-0.2,0-0.4,0.1-0.6,0.1c-2.3,0.5-3.8,2.2-4.2,4.7
	c0,0.1,0,0.2,0,0.3h-2.5l0-0.5l0-1.3c0-0.3-0.1-0.6-0.5-0.6l-0.2,0l-0.2,0c-0.4,0-0.5,0.2-0.5,0.5l0,1.4l0,0.5h-2.5l0,0
	c0-0.2-0.1-0.4-0.1-0.6c-0.5-2.5-2.1-4-4.4-4.4L6.9,9L6.7,9c0,0,0,0-0.1,0H5.8c0,0-0.1,0-0.1,0c0,0,0,0-0.1,0C4.8,9.1,4,9.4,3.3,10
	c-0.7,0.6-1.3,1.3-1.8,2.1c-0.3,0.4-0.6,0.7-1,0.8c0,0-0.1,0-0.1,0c-0.1,0-0.2,0.2-0.2,0.3c0,0.1,0.1,0.2,0.3,0.3c0.1,0,0.2,0,0.3,0
	c0.3,0,0.8,0,1.2-0.4c0.3-0.3,0.6-0.6,0.8-0.9l0.1-0.1C2.9,12,3,11.9,3,11.8c0.1-0.1,0.1-0.2,0.2-0.3c0.8-0.9,1.8-1.3,2.8-1.3
	c0.9,0,1.8,0.3,2.5,1c0.8,0.7,1.3,1.6,1.6,2.8c0,0.1,0,0.1,0,0.2l-2,0.1l0,0c0-0.2-0.1-0.3-0.1-0.5c-0.4-1.3-1.5-2.2-2.8-2.2
	c-0.7,0-1.4,0.3-1.9,0.8c-0.2,0.2-0.5,0.5-0.8,0.8c-0.2,0.3-0.5,0.5-0.9,0.6c0,0-0.1,0-0.1,0l-0.1,0c-0.1,0-0.2,0.2-0.2,0.3
	c0,0.1,0.1,0.2,0.3,0.2c0.1,0,0.1,0,0.2,0c0.5,0,1-0.2,1.4-0.5c0.1-0.1,0.3-0.2,0.4-0.3l0.2-0.2c0.3-0.2,0.5-0.4,0.9-0.4
	c0.1,0,0.2,0,0.3,0c0.8,0,1.5,0.5,1.8,1.4c0,0,0,0.1,0,0.1l-6.5,0.3C0.1,14.7,0,14.8,0,15c0,0.2,0.1,0.3,0.3,0.3l6.5,0.3
	c0,0.1,0,0.1-0.1,0.2c-0.3,0.8-0.9,1.3-1.7,1.3c-0.4,0-0.8-0.1-1.1-0.4c-0.1-0.1-0.3-0.2-0.4-0.4c-0.1-0.1-0.2-0.2-0.3-0.3
	c-0.4-0.3-0.9-0.5-1.4-0.5c-0.1,0-0.2,0-0.3,0c-0.1,0-0.2,0.1-0.2,0.3c0,0.1,0.1,0.2,0.2,0.3l0.1,0l0.1,0c0.3,0.1,0.6,0.3,0.9,0.6
	c0.3,0.3,0.6,0.6,1,1c0.4,0.4,0.9,0.5,1.5,0.6c0,0,0.1,0,0.1,0c1.3,0,2.4-0.9,2.9-2.3c0-0.1,0.1-0.3,0.1-0.4l1.8,0.1l0.2,0
	c-0.2,0.9-0.5,1.7-1,2.3c-0.8,1.1-1.9,1.6-3.1,1.6c-0.2,0-0.4,0-0.7-0.1c-1-0.1-1.8-0.7-2.5-1.6c-0.3-0.4-0.7-0.9-1.1-1.2
	c-0.3-0.2-0.8-0.4-1.2-0.4c-0.1,0-0.2,0-0.3,0c-0.1,0-0.2,0.1-0.2,0.2c0,0.1,0,0.2,0.1,0.3c0,0,0.1,0,0.1,0.1
	c0.5,0.1,0.9,0.4,1.2,0.9c0.3,0.5,0.7,1,1,1.3c0.8,0.8,1.6,1.3,2.4,1.5C5.4,21,5.8,21,6.2,21c0.2,0,0.4,0,0.6,0
	c1-0.1,1.9-0.4,2.6-0.9c1.2-0.8,1.9-1.9,2.3-3.5c0-0.2,0.1-0.4,0.1-0.6l0,0h2.5v0.8l0,0.3c0,0.3,0,0.5,0,0.8c0,0.4,0.2,0.5,0.5,0.5
	l0.2,0l0.2,0c0.4,0,0.5-0.2,0.5-0.6l0-1.3l0-0.5h2.5l0,0c0,0.2,0.1,0.4,0.1,0.6c0.4,1.7,1.3,3,2.7,3.8c0.6,0.3,1.3,0.6,2.1,0.7
	c0.3,0,0.5,0.1,0.8,0.1c1.1,0,2.1-0.3,2.9-1c0.7-0.6,1.3-1.3,1.7-2.1c0.3-0.5,0.6-0.8,1.1-0.9c0,0,0.1,0,0.1,0
	c0.1,0,0.2-0.2,0.2-0.3c0-0.1-0.1-0.2-0.3-0.3c-0.1,0-0.2,0-0.2,0c-0.3,0-0.8,0-1.2,0.4c-0.4,0.3-0.7,0.7-1,1.1L27,18.1
	c-0.9,1-1.9,1.6-3.1,1.6c-0.6,0-1.2-0.2-1.8-0.5c-1.1-0.6-1.9-1.6-2.3-3.1c0-0.1-0.1-0.2-0.1-0.4l0.3,0l1.7-0.1l0,0.1
	c0.1,0.2,0.1,0.4,0.2,0.6c0.4,1.2,1.6,2,2.8,2c0.7,0,1.3-0.2,1.8-0.7c0.3-0.3,0.6-0.6,0.9-0.9c0.2-0.2,0.4-0.4,0.7-0.5l0.2-0.1
	l0.1,0c0.1,0,0.2-0.1,0.2-0.2c0-0.1,0-0.2-0.1-0.3c-0.1-0.1-0.2-0.1-0.3-0.1c-0.6,0-1.1,0.2-1.6,0.6l-0.2,0.1
	c-0.2,0.2-0.3,0.3-0.5,0.4c-0.3,0.2-0.7,0.3-1.1,0.3c-0.8,0-1.4-0.5-1.7-1.3c0-0.1,0-0.1,0-0.2l6.5-0.3C29.9,15.3,30,15.2,30,15z"/>
</svg>
