<?xml version="1.0" encoding="utf-8"?>
<!-- Generator: Adobe Illustrator 22.1.0, SVG Export Plug-In . SVG Version: 6.00 Build 0)  -->
<svg version="1.1" id="Calque_1" xmlns="http://www.w3.org/2000/svg" xmlns:xlink="http://www.w3.org/1999/xlink" x="0px" y="0px"
	 width="30px" height="30px" viewBox="0 0 30 30" style="enable-background:new 0 0 30 30;" xml:space="preserve">
<style type="text/css">
	.st0{fill:#FFFFFF;}
</style>
<g>
	<path d="M12.5,1.6c1.2-0.1,2.4,0.2,3.6,0.6c2.5,1,4.5,2.5,5.6,4.9c0.9,1.8,0.9,3.7,0.2,5.5c-0.4,0.9-0.3,0.9-1.2,0.7
		c-0.1,0-0.1,0-0.2,0c-2-0.1-3.5,0.7-4.5,2.3c-1,1.6-1.1,3.3-0.2,5c1.3,2.4,3.8,3.1,6.4,2.5c1.5-0.3,2.8-1.1,3.9-2.1
		c1.8-1.8,2.9-3.9,2.8-6.5c-0.2-3-1.1-5.8-3.1-8.2C23.1,2.9,19.5,1.2,15.1,1c-1.3,0-2.6,0.3-3.9,0.4c0,0.1,0,0.1,0,0.2
		C11.7,1.6,12.1,1.6,12.5,1.6z"/>
	<path d="M27.1,20.7c-1.8,2.3-4.1,3.6-7,4.1c-2.8,0.4-5.1-0.5-6.9-2.8c-0.3-0.3-0.3-0.5,0-0.8c0.8-0.8,1.2-1.8,1.2-3
		c0.1-1.7-0.6-3.2-2-4.2c-1.4-1-3-1.3-4.6-0.7c-1.6,0.5-2.5,1.7-3.2,3.1c-1,2.1-1,4.2-0.2,6.3C5,24.4,6,25.9,7.7,26.9
		c1.9,1.2,4,1.8,6.3,2c2.7,0.2,5.2-0.4,7.5-1.6c3.2-1.6,5.4-4.2,6.6-7.5c0.1-0.4,0.3-0.8,0.4-1.1c0,0-0.1,0-0.1,0
		C28,19.3,27.6,20.1,27.1,20.7z"/>
	<path d="M3.5,21.2c-0.5-2.2-0.4-4.5,0.5-6.6c1.1-2.7,3.1-4.2,6-4.6c0.2,0,0.4,0,0.5,0.3c0.8,2.5,3,3.8,5.6,3.4
		c2.3-0.4,4.1-2.5,4.1-4.8c0-2-1-3.6-2.4-4.9c-1.5-1.3-3.2-1.9-5.2-2.1c-1.2-0.1-2.4,0-3.5,0.5C6.7,3.4,4.8,5,3.4,7.1
		c-2,3-2.8,6.2-2.3,9.7c0.3,2.4,1.2,4.6,2.7,6.5c0.4,0.5,0.8,1,1.3,1.6c0-0.1,0-0.2,0-0.2c-0.1-0.1-0.2-0.3-0.3-0.4
		C4.2,23.4,3.7,22.3,3.5,21.2z"/>
</g>
</svg>
