<?xml version="1.0" encoding="utf-8"?>
<!-- Generator: Adobe Illustrator 22.1.0, SVG Export Plug-In . SVG Version: 6.00 Build 0)  -->
<svg version="1.1" id="Calque_1" xmlns="http://www.w3.org/2000/svg" xmlns:xlink="http://www.w3.org/1999/xlink" x="0px" y="0px"
	 width="30px" height="30px" viewBox="0 0 30 30" style="enable-background:new 0 0 30 30;" xml:space="preserve">
<style type="text/css">
	.st0{fill:#FFFFFF;}
</style>
<g>
	<path d="M7.1,16.5C4.8,13.8,3.6,7.8,7.7,3.2c3.7-4.1,10.1-4.3,14.1-0.5c4.2,4,3.9,10.2,1,13.8c0.1-2.5-0.6-4.6-2.2-6.3
		c-1.7-1.7-3.7-2.5-6-2.4C11,8,7,11.3,7.1,16.5z M6.6,11.5C8.5,8.2,11.3,6.3,15,6c4-0.3,6.4,2.2,8.3,5.5c0.8-2.3-0.8-6-3.3-7.9
		c-2.9-2.3-6.5-2.3-9.4-0.3C7.6,5.4,6.2,9.1,6.6,11.5z"/>
	<path d="M15.3,9.6c0.5,1,1,2,1.5,2.9c1.1,2.3,2.3,4.5,3.4,6.8c0.2,0.3,0.2,0.6,0.1,0.9c-1.6,3.1-3.2,6.2-4.7,9.3
		c-0.1,0.1-0.2,0.3-0.3,0.5c-0.1-0.2-0.2-0.3-0.3-0.4c-1.6-3.1-3.2-6.2-4.7-9.3c-0.1-0.3-0.2-0.5-0.1-0.8c1.6-3.2,3.2-6.3,4.8-9.5
		C15.1,9.9,15.2,9.8,15.3,9.6z M15.3,26.5c0.1-0.2,0.2-0.3,0.3-0.5c1-1.9,1.9-3.8,2.9-5.7c0.2-0.3,0.2-0.5,0-0.8
		c-1-1.9-1.9-3.8-2.9-5.7c-0.1-0.1-0.2-0.3-0.3-0.4c-0.1,0.1-0.1,0.1-0.1,0.2c-1,2-2.1,4.1-3.1,6.1c-0.1,0.1,0,0.4,0,0.6
		c0.4,0.9,0.9,1.8,1.4,2.7C14.1,24.1,14.6,25.2,15.3,26.5z"/>
</g>
</svg>
