<?xml version="1.0" encoding="utf-8"?>
<!-- Generator: Adobe Illustrator 22.1.0, SVG Export Plug-In . SVG Version: 6.00 Build 0)  -->
<svg version="1.1" id="Calque_1" xmlns="http://www.w3.org/2000/svg" xmlns:xlink="http://www.w3.org/1999/xlink" x="0px" y="0px"
	 width="30px" height="30px" viewBox="0 0 30 30" style="enable-background:new 0 0 30 30;" xml:space="preserve">
<style type="text/css">
	.st0{fill:#FFFFFF;}
</style>
<path d="M14,1c0.7,0,1.3,0,2,0c0.2,0,0.4,0.1,0.6,0.1c5.9,0.6,11,5.2,12.1,11c0.1,0.6,0.2,1.2,0.3,1.8c0,0.7,0,1.3,0,2
	c-0.1,0.2-0.1,0.4-0.1,0.6c-0.6,5.9-5.1,10.9-11,12.1c-0.6,0.1-1.3,0.2-1.9,0.3c-0.7,0-1.3,0-2,0c-0.2,0-0.4-0.1-0.6-0.1
	c-5.9-0.6-10.9-5.1-12.1-11C1.2,17.3,1.1,16.6,1,16c0-0.7,0-1.3,0-2c0-0.2,0.1-0.4,0.1-0.6c0.7-6,5.1-10.9,11-12.1
	C12.7,1.2,13.4,1.1,14,1z M3.9,16.4c0.5,5.5,5.7,9.6,9.7,9.6c0-3.2,0-6.4,0-9.6C10.3,16.4,7.2,16.4,3.9,16.4z M26.1,16.4
	c-3.3,0-6.5,0-9.7,0c0,3.2,0,6.5,0,9.7C21,25.8,25.6,21.6,26.1,16.4z M5.3,13.6c1.1-5.6,5.5-8.3,9.6-8.4c4,0,8.7,2.5,9.8,8.4
	c0.5,0,0.9,0,1.4,0c-0.3-4.6-4.8-10-11.4-9.8C8.2,4,4.2,9.3,3.9,13.6C4.4,13.6,4.8,13.6,5.3,13.6z M16.8,13.6c0-1.7,0-3.4,0-5
	c0-0.2-0.3-0.4-0.5-0.4C15.5,8,14.7,8,14,8c-0.6,0-0.8,0.3-0.8,0.9c0.1,0.6,0,1.2,0,1.8c0,0.9,0,1.9,0,2.9
	C14.4,13.6,15.6,13.6,16.8,13.6z M8.1,13.6c0.8,0,1.6,0,2.3,0c0-1.3,0-2.5,0-3.9C9.2,10.8,8.4,12,8.1,13.6z M21.9,13.6
	c-0.4-1.6-1-2.9-2.3-3.9c0,1.4,0,2.6,0,3.9C20.4,13.6,21.1,13.6,21.9,13.6z"/>
</svg>
