<?xml version="1.0" encoding="utf-8"?>
<!-- Generator: Adobe Illustrator 22.1.0, SVG Export Plug-In . SVG Version: 6.00 Build 0)  -->
<svg version="1.1" id="Calque_1" xmlns="http://www.w3.org/2000/svg" xmlns:xlink="http://www.w3.org/1999/xlink" x="0px" y="0px"
	 width="30px" height="30px" viewBox="0 0 30 30" style="enable-background:new 0 0 30 30;" xml:space="preserve">
<style type="text/css">
	.st0{fill:#FFFFFF;}
</style>
<path d="M15,29C7,28.9,1.3,22.6,1,15.6C0.7,7.2,7.4,0.9,15.1,1C22.9,1.1,29,7.4,29,14.9C29,23,22.5,29,15,29z M16.7,25.4
	c4.8-0.8,9.2-5.1,8.8-11.1c-0.3-5.5-4.6-9.1-8.8-9.7C16.7,11.5,16.7,18.4,16.7,25.4z M13.3,4.6c-5.2,0.8-9.6,5.8-8.7,11.9
	c0.7,4.9,4.8,8.3,8.7,8.8C13.3,18.5,13.3,11.6,13.3,4.6z"/>
</svg>
