<?xml version="1.0" encoding="utf-8"?>
<!-- Generator: Adobe Illustrator 22.1.0, SVG Export Plug-In . SVG Version: 6.00 Build 0)  -->
<svg version="1.1" id="Calque_1" xmlns="http://www.w3.org/2000/svg" xmlns:xlink="http://www.w3.org/1999/xlink" x="0px" y="0px"
	 width="30px" height="30px" viewBox="0 0 30 30" style="enable-background:new 0 0 30 30;" xml:space="preserve">
<style type="text/css">
	.st0{fill:#FFFFFF;}
</style>
<g>
	<path d="M28,4.5c-0.1-0.9-0.5-1.6-1.1-2.1c-1.1-0.9-2.1-1.4-3-1.4c-1,0.6-2.4,1-4.2,1.3h0c-0.6,0.1-1.2,0.1-1.9,0.2
		c-2.2,0.2-4,0.3-5.4,0.4c0,0,0,0,0,0c-1.1,0-2,0-2.6-0.2C8.1,2.3,6.9,1.8,6.3,1.2C5,1.9,3.8,2.8,3,3.7C1.6,4.8,1.7,6.4,3.1,8.4
		c1.1,1.5,2.7,2.1,4.9,1.7c0.7-0.1,2.3-0.6,4.8-1.5c0.3-0.1,0.5-0.2,0.8-0.2c0,0,0,0,0,0c0.8-0.2,1.5-0.3,2.3-0.4
		C17.3,8,18.6,8.2,20,8.7c2.3,0.9,3.9,1.3,4.7,1.1c0.8-0.2,1.8-1.1,3.1-2.9C28,6,28.1,5.2,28,4.5"/>
	<path d="M24,20.4c-1.1-0.6-2.2-0.8-3.4-0.5c-1.2,0.3-2.1,1-2.8,2.1c-0.6,1.1-0.8,2.3-0.4,3.5c0.3,1.2,1,2.2,2.1,2.8
		c1.1,0.6,2.2,0.8,3.4,0.5c1.2-0.3,2.1-1,2.8-2.2c0.6-1.1,0.8-2.3,0.4-3.5C25.8,21.9,25.1,21,24,20.4"/>
	<path d="M18.5,11.3c-0.9-0.9-2-1.4-3.2-1.4c-1.2,0-2.3,0.5-3.2,1.4c-0.9,0.9-1.3,2-1.3,3.3c0,1.3,0.4,2.4,1.3,3.3
		c0.9,0.9,2,1.4,3.2,1.4c1.3,0,2.3-0.5,3.2-1.4c0.9-0.9,1.3-2,1.3-3.3S19.4,12.2,18.5,11.3"/>
	<path d="M7.7,20.4c-1.1,0.6-1.8,1.6-2.1,2.8c-0.3,1.2-0.2,2.4,0.4,3.5c0.6,1.1,1.5,1.8,2.8,2.2c1.2,0.3,2.4,0.2,3.4-0.5
		c1.1-0.6,1.8-1.6,2.1-2.8c0.3-1.2,0.2-2.4-0.5-3.5c-0.6-1.1-1.5-1.8-2.8-2.1C9.9,19.6,8.8,19.7,7.7,20.4"/>
</g>
</svg>
