<?xml version="1.0" encoding="utf-8"?>
<!-- Generator: Adobe Illustrator 22.1.0, SVG Export Plug-In . SVG Version: 6.00 Build 0)  -->
<svg version="1.1" id="Calque_1" xmlns="http://www.w3.org/2000/svg" xmlns:xlink="http://www.w3.org/1999/xlink" x="0px" y="0px"
	 width="30px" height="30px" viewBox="0 0 30 30" style="enable-background:new 0 0 30 30;" xml:space="preserve">
<style type="text/css">
	.st0{fill:#FFFFFF;}
</style>
<path d="M13.7,30c0-3.8,0-7.6,0-11.6C12.2,19,11,19.5,9.6,20c0.2,0.4,0.3,0.6,0.4,0.8c0.9,1.6,0.7,3.3-0.5,4.6
	c-1.2,1.3-2.9,1.6-4.4,0.9c-1.5-0.7-2.4-2.3-2.2-4c0.2-1.7,1.5-3,3.2-3.3c0.5-0.1,1-0.3,1.4-0.6c1.6-1.1,3.4-1.9,5.3-2.2
	c0.3-0.1,0.7,0,0.7-0.6c0-0.6-0.3-0.6-0.7-0.6c-2.2-0.4-4.2-1.3-5.9-2.7c-0.4-0.3-1-0.6-1.5-0.8c-1.8-0.7-2.9-2.7-2.4-4.6
	c0.5-1.9,2.3-3.2,4.3-2.9c1.9,0.3,3.4,2.1,3.2,4.1c-0.1,0.9-0.6,1.8-1,2.9c1.2,0.5,2.6,1.1,4.1,1.7c0-1.4,0-2.5,0-3.6
	c0-0.2-0.4-0.5-0.7-0.6c-1.6-0.9-2.4-2.3-2.3-4.1c0.1-1.9,1-3.2,2.7-3.9c2.1-0.9,4.6,0.1,5.6,2.2c1,2.1,0.2,4.7-1.9,5.8
	c-0.6,0.3-0.8,0.6-0.8,1.3c0.1,0.9,0,1.8,0,3c1.5-0.6,2.9-1.2,4.4-1.8c-0.3-0.4-0.5-0.6-0.6-0.8c-1-1.4-1-3.2,0-4.5
	c1-1.4,2.7-2,4.1-1.5C25.8,4.5,27,6,27,7.6c0,1.7-1,3.2-2.5,3.8c-0.5,0.2-1.1,0.5-1.5,0.8c-1.8,1.4-3.7,2.3-5.9,2.6
	c-0.7,0.1-0.9,0.4-0.7,1.1c0.2,0,0.4,0.1,0.7,0.2c2,0.4,3.9,1.1,5.5,2.4c0.3,0.2,0.7,0.4,1.1,0.4c2,0.4,3.5,2.3,3.2,4.3
	c-0.2,2-2.1,3.5-4.1,3.4c-1.9-0.2-3.6-2-3.4-4c0.1-0.9,0.5-1.7,0.8-2.7c-1.2-0.5-2.4-1-3.9-1.5c0,4,0,7.8,0,11.6
	C15.4,30,14.6,30,13.7,30z M17,4.5c0-1.2-0.9-2.1-2-2.1c-1.1,0-2.1,0.9-2.1,2.1c0,1.1,0.9,2,2,2C16.1,6.5,17,5.7,17,4.5z M23.1,5.8
	c-1,0-1.9,0.9-1.9,1.9c0,1.1,0.9,2,1.9,1.9c1.1,0,1.9-0.9,1.8-2C25,6.6,24.2,5.8,23.1,5.8z M8.6,22.8c0-1.1-0.8-2-1.9-1.9
	c-1,0-1.9,0.9-1.9,1.9c0,1.1,0.9,2,1.9,1.9C7.8,24.7,8.6,23.8,8.6,22.8z M25.1,22.8c0-1.1-0.8-1.9-1.9-1.9c-1.1,0-1.9,0.8-1.9,1.9
	c0,1.1,0.8,1.9,1.8,2C24.3,24.7,25.1,23.9,25.1,22.8z M8.6,7.7c0-1.1-0.9-1.9-2-1.9c-1,0-1.8,0.9-1.8,2c0,1.1,0.8,1.9,1.9,1.9
	C7.8,9.7,8.6,8.8,8.6,7.7z"/>
</svg>
