<?xml version="1.0" encoding="utf-8"?>
<!-- Generator: Adobe Illustrator 22.1.0, SVG Export Plug-In . SVG Version: 6.00 Build 0)  -->
<svg version="1.1" id="Calque_1" xmlns="http://www.w3.org/2000/svg" xmlns:xlink="http://www.w3.org/1999/xlink" x="0px" y="0px"
	 width="30px" height="30px" viewBox="0 0 30 30" style="enable-background:new 0 0 30 30;" xml:space="preserve">
<style type="text/css">
	.st0{fill:#FFFFFF;}
</style>
<g>
	<path d="M14.7,1C7.1,1.2,1,7.4,1,15c0,7.7,6.3,14,14,14c7.7,0,14-6.3,14-14C29,7.2,22.6,0.8,14.7,1z M15,28.5
		C13.4,21.2,8.9,16.7,1.7,15C8.9,13.4,13.4,8.9,15,1.6c1.7,7.3,6.2,11.9,13.5,13.5C21.2,16.7,16.7,21.2,15,28.5z"/>
	<path d="M15.1,11c-2.1-0.1-4,1.7-4.1,3.9C10.9,17,12.8,19,15,19c2.1,0,4-1.8,4-4C19,12.9,17.3,11.1,15.1,11z"/>
</g>
</svg>
