<?xml version="1.0" encoding="utf-8"?>
<!-- Generator: Adobe Illustrator 22.1.0, SVG Export Plug-In . SVG Version: 6.00 Build 0)  -->
<svg version="1.1" id="Calque_1" xmlns="http://www.w3.org/2000/svg" xmlns:xlink="http://www.w3.org/1999/xlink" x="0px" y="0px"
	 width="30px" height="30px" viewBox="0 0 30 30" style="enable-background:new 0 0 30 30;" xml:space="preserve">
<style type="text/css">
	.st0{fill:#FFFFFF;}
</style>
<g>
	<path d="M5.8,19.7c1.6,1.9,3.8,3.3,6.2,3.9V27c0,1.6,1.3,3,3,3s3-1.4,3-3v-3.4c2.5-0.6,4.6-2,6.2-3.9c-2.8-1.4-5.9-2.2-9.2-2.2
		C11.7,17.5,8.6,18.3,5.8,19.7z"/>
	<path d="M15,0C8.4,0,3,5.4,3,12c0,1.8,0.4,3.5,1.1,5.1c3.3-1.7,6.9-2.6,10.9-2.6c3.9,0,7.6,0.9,10.9,2.6c0.7-1.5,1.1-3.3,1.1-5.1
		C27,5.4,21.6,0,15,0z"/>
</g>
</svg>
