<?xml version="1.0" encoding="utf-8"?>
<!-- Generator: Adobe Illustrator 22.1.0, SVG Export Plug-In . SVG Version: 6.00 Build 0)  -->
<svg version="1.1" id="Calque_1" xmlns="http://www.w3.org/2000/svg" xmlns:xlink="http://www.w3.org/1999/xlink" x="0px" y="0px"
	 width="30px" height="30px" viewBox="0 0 30 30" style="enable-background:new 0 0 30 30;" xml:space="preserve">
<style type="text/css">
	.st0{fill:#FFFFFF;}
</style>
<path d="M28.5,13.7L16.3,1.5C16,1.2,15.5,1,15,1s-1,0.2-1.3,0.5L1.5,13.7c-0.7,0.7-0.7,1.9,0,2.6l12.1,12.1C14,28.8,14.5,29,15,29
	s1-0.2,1.3-0.5l12.1-12.1C29.2,15.6,29.2,14.4,28.5,13.7z M13.6,13.7H5.5l8.1-8.1V13.7z M16.4,5.6l8.1,8.1h-8.1V5.6z M15,25.8
	l-9.3-9.3h18.6L15,25.8z"/>
</svg>
