<?xml version="1.0" encoding="utf-8"?>
<!-- Generator: Adobe Illustrator 22.1.0, SVG Export Plug-In . SVG Version: 6.00 Build 0)  -->
<svg version="1.1" id="Calque_1" xmlns="http://www.w3.org/2000/svg" xmlns:xlink="http://www.w3.org/1999/xlink" x="0px" y="0px"
	 width="30px" height="30px" viewBox="0 0 30 30" style="enable-background:new 0 0 30 30;" xml:space="preserve">
<style type="text/css">
	.st0{fill:#FFFFFF;}
</style>
<g>
	<path d="M17.3,17.9c-0.6,0.3-1.2,0.5-1.9,0.8c0,0.8,0,1.6,0,2.4c0,0.2-0.3,0.5-0.5,0.7c-0.1-0.2-0.3-0.4-0.3-0.7c0-0.8,0-1.6,0-2.4
		c-0.7-0.3-1.3-0.5-1.9-0.8c-1,1-2,2-3,3c-0.1,0.1-0.1,0.1-0.2,0.2c-0.8,0.8-1,1.8-0.7,2.8c0.4,1.1,1.2,1.8,2.3,2
		c0.2,0,0.5,0.1,0.7,0.1c0.5,1.9,1.5,2.8,3,2.9c1.5,0.1,2.5-0.8,3.3-3c0.3,0,0.6,0,0.8-0.1c2.1-0.4,3.2-2.9,1.8-4.5
		C19.7,20.2,18.5,19.1,17.3,17.9z"/>
	<path d="M26.1,11.7c-0.1-0.4-0.1-0.8-0.2-1.2c-0.6-1.9-3.1-2.6-4.4-1.3c-1.2,1.1-2.3,2.4-3.4,3.5c0.1,1.9,1.3,2.1,2.8,1.9
		c0.3,0,0.6,0.2,0.9,0.3c-0.3,0.2-0.6,0.4-1,0.4c-0.7,0.1-1.5,0-2.1,0c-0.3,0.7-0.5,1.3-0.8,1.8c1.2,1.2,2.3,2.4,3.5,3.5
		c0.4,0.4,1.2,0.6,1.8,0.6c1.6,0,2.7-1.2,2.8-3.2c2-0.6,2.9-1.6,2.9-3.1C29,13.5,28.2,12.5,26.1,11.7z"/>
	<path d="M12,17.2c-0.2-0.5-0.5-1.2-0.8-1.8c-0.7,0-1.5,0-2.2,0c-0.2,0-0.5-0.3-0.7-0.4c0.2-0.1,0.4-0.3,0.7-0.3c0.8,0,1.6,0,2.2,0
		c0.3-0.8,0.6-1.4,0.8-2c-0.5-0.5-1-1-1.6-1.5c-0.5-0.5-1.1-1-1.6-1.5C8,8.6,7.1,8.4,6,8.8C4.9,9.1,4.2,9.9,4.1,11
		C4,11.6,3.8,11.8,3.2,12C1.9,12.3,1,13.6,1,15c0,1.4,1,2.6,2.3,3c0.2,0.1,0.4,0.1,0.6,0.2C4,18.4,4,18.7,4,19
		c0.3,2,2.9,3.2,4.4,1.9C9.7,19.8,10.8,18.5,12,17.2z"/>
	<path d="M12.6,12c0.7-0.3,1.4-0.5,2-0.8c0-0.8,0-1.5,0-2.2c0-0.2,0.3-0.5,0.4-0.7c0.1,0.2,0.4,0.5,0.4,0.7c0.1,0.8,0,1.5,0,2.2
		c0.7,0.3,1.3,0.5,2,0.9c1.1-1.1,2.3-2.3,3.4-3.6c0.4-0.5,0.6-1.4,0.5-2.1c-0.1-1.5-1.3-2.3-3.2-2.5C17.6,2,16.5,1,15,1
		c-1.6,0-2.5,0.8-3.3,2.9c-0.3,0.1-0.7,0.1-1,0.2c-1.9,0.5-2.8,3-1.6,4.4C10.3,9.7,11.5,10.9,12.6,12z"/>
	<path d="M15,12.1c-1.5,0-2.8,1.2-2.9,2.7c-0.1,1.5,1.3,2.9,2.8,2.9c1.5,0,2.8-1.3,2.8-2.8C17.7,13.4,16.5,12.2,15,12.1z"/>
</g>
</svg>
