<?xml version="1.0" encoding="utf-8"?>
<!-- Generator: Adobe Illustrator 22.1.0, SVG Export Plug-In . SVG Version: 6.00 Build 0)  -->
<svg version="1.1" id="Calque_1" xmlns="http://www.w3.org/2000/svg" xmlns:xlink="http://www.w3.org/1999/xlink" x="0px" y="0px"
	 width="30px" height="30px" viewBox="0 0 30 30" style="enable-background:new 0 0 30 30;" xml:space="preserve">
<style type="text/css">
	.st0{fill:#FFFFFF;}
</style>
<g>
	<path d="M14.3,1c0.4,0,0.9,0,1.3,0c0.1,0,0.2,0,0.3,0c0.5,0.1,0.9,0.1,1.4,0.2c3.4,0.6,6.2,2.2,8.4,4.8c1.7,2.1,2.8,4.4,3.1,7.1
		c0.1,0.4,0.1,0.8,0.1,1.2c0,0.4,0,0.9,0,1.3c0,0.1,0,0.2,0,0.3c-0.1,0.5-0.1,0.9-0.2,1.4c-0.6,3.4-2.2,6.2-4.8,8.4
		c-2.1,1.7-4.4,2.8-7.1,3.1c-0.4,0.1-0.8,0.1-1.2,0.1c-0.4,0-0.9,0-1.3,0c-0.1,0-0.2,0-0.3,0c-0.5-0.1-0.9-0.1-1.4-0.2
		c-3.4-0.6-6.2-2.2-8.4-4.8c-1.7-2.1-2.8-4.4-3.1-7.1C1.1,16.5,1,16.1,1,15.7c0-0.4,0-0.9,0-1.3c0-0.1,0-0.2,0-0.3
		c0.1-0.5,0.1-0.9,0.2-1.4c0.6-3.4,2.2-6.2,4.9-8.4c2-1.7,4.4-2.7,7-3.1C13.5,1.1,13.9,1,14.3,1z M8.5,9.2c0,3.9,0,7.8,0,11.7
		c0.1-0.1,0.1-0.1,0.1-0.1c1.5-1.8,3-3.7,4.4-5.5c0.1-0.1,0.1-0.2,0-0.3c-1-1.2-2-2.5-3-3.7C9.6,10.5,9.1,9.8,8.5,9.2z M21.5,20.8
		c0-3.9,0-7.8,0-11.7c-0.1,0.1-0.1,0.1-0.1,0.2c-1.5,1.9-3,3.7-4.4,5.5c-0.1,0.1-0.1,0.2,0,0.3c1.5,1.8,2.9,3.6,4.4,5.5
		C21.4,20.7,21.4,20.8,21.5,20.8z M9.1,5.5c1.5,1.8,2.9,3.7,4.4,5.5c0-2.4,0-4.8,0-7.1C12.5,3.9,10,4.8,9.1,5.5z M16.4,3.9
		c0,2.4,0,4.7,0,7.1c1.5-1.9,3-3.7,4.5-5.6C19.5,4.6,18,4.1,16.4,3.9z M13.6,26.1c0-2.3,0-4.7,0-7.1c-1.5,1.9-3,3.7-4.4,5.5
		C9.9,25.2,12.6,26.1,13.6,26.1z M20.9,24.6c-1.5-1.9-3-3.7-4.5-5.6c0,2.4,0,4.8,0,7.1C18,25.9,19.5,25.4,20.9,24.6z M5.7,8.7
		c-2.8,4.1-2.3,9.3,0,12.5C5.7,17.1,5.7,12.9,5.7,8.7z M24.3,21.2c1.4-2,2-4.2,1.9-6.6c-0.1-2.1-0.7-4-1.9-5.8
		C24.3,12.9,24.3,17.1,24.3,21.2z"/>
</g>
</svg>
