<?xml version="1.0" encoding="utf-8"?>
<!-- Generator: Adobe Illustrator 22.1.0, SVG Export Plug-In . SVG Version: 6.00 Build 0)  -->
<svg version="1.1" id="Calque_1" xmlns="http://www.w3.org/2000/svg" xmlns:xlink="http://www.w3.org/1999/xlink" x="0px" y="0px"
	 width="30px" height="30px" viewBox="0 0 30 30" style="enable-background:new 0 0 30 30;" xml:space="preserve">
<style type="text/css">
	.st0{fill:#FFFFFF;}
</style>
<g>
	<path d="M14.4,15c-2.4,2.4-4.7,4.7-7.2,7.2c-2.4-2.4-4.8-4.8-7.3-7.3c2.4-2.4,4.7-4.7,7.2-7.2C9.6,10.2,12,12.6,14.4,15z M6,14.9
		c0.5,0.5,0.8,0.8,1.2,1.2C7.6,15.8,8,15.4,8.4,15c-0.4-0.4-0.8-0.8-1.2-1.2C6.7,14.2,6.4,14.5,6,14.9z"/>
	<path d="M22.3,7.3c-2.4,2.4-4.7,4.7-7.2,7.2c-2.4-2.4-4.8-4.8-7.3-7.3C10.2,4.8,12.5,2.4,15,0C17.4,2.4,19.8,4.8,22.3,7.3z M15,8.4
		c0.5-0.5,0.8-0.8,1.2-1.2C15.8,6.8,15.4,6.4,15,6c-0.4,0.4-0.8,0.8-1.2,1.2C14.3,7.7,14.6,8,15,8.4z"/>
	<path d="M14.9,30c-2.5-2.5-4.8-4.8-7.2-7.2c2.4-2.4,4.8-4.8,7.2-7.2c2.4,2.4,4.8,4.8,7.2,7.2C19.8,25.2,17.4,27.6,14.9,30z
		 M16.1,22.8c-0.4-0.4-0.8-0.8-1.2-1.2c-0.4,0.4-0.8,0.8-1.2,1.2c0.4,0.4,0.8,0.8,1.2,1.2C15.4,23.5,15.7,23.1,16.1,22.8z"/>
	<path d="M22.8,22.2c-2.5-2.5-4.8-4.8-7.3-7.3c2.4-2.4,4.8-4.8,7.2-7.2c2.4,2.4,4.8,4.8,7.3,7.3C27.6,17.4,25.2,19.7,22.8,22.2z
		 M24,15c-0.4-0.4-0.8-0.8-1.3-1.3c-0.4,0.4-0.8,0.8-1.2,1.2c0.4,0.4,0.8,0.8,1.3,1.3C23.2,15.8,23.6,15.4,24,15z"/>
</g>
</svg>
