<?xml version="1.0" encoding="utf-8"?>
<!-- Generator: Adobe Illustrator 22.1.0, SVG Export Plug-In . SVG Version: 6.00 Build 0)  -->
<svg version="1.1" id="Calque_1" xmlns="http://www.w3.org/2000/svg" xmlns:xlink="http://www.w3.org/1999/xlink" x="0px" y="0px"
	 width="30px" height="30px" viewBox="0 0 30 30" style="enable-background:new 0 0 30 30;" xml:space="preserve">
<style type="text/css">
	.st0{fill:#FFFFFF;}
</style>
<g>
	<g>
		<path d="M8.1,16.8c0-1.3,0-2.4,0-3.7c4.6,0,9.1,0,13.7,0c0,1.2,0,2.4,0,3.7C17.3,16.8,12.7,16.8,8.1,16.8z"/>
		<path d="M21.9,8.4c0,1.2,0,2.4,0,3.7c-4.6,0-9.1,0-13.8,0c0-1.2,0-2.4,0-3.7C12.7,8.4,17.3,8.4,21.9,8.4z"/>
		<path d="M21.9,21.6c-4.6,0-9.2,0-13.9,0c0-1.3,0-2.5,0-3.9c4.6,0,9.1,0,13.9,0C21.9,19,21.9,20.3,21.9,21.6z"/>
	</g>
	<path d="M19.1,4c0.3,0,0.5,0.1,0.7,0.3l5.9,5.9c0.2,0.2,0.3,0.4,0.3,0.7v8.3c0,0.3-0.1,0.5-0.3,0.7l-5.9,5.9
		c-0.2,0.2-0.4,0.3-0.7,0.3h-8.3c-0.3,0-0.5-0.1-0.7-0.3l-5.9-5.9C4.1,19.7,4,19.4,4,19.1v-8.3c0-0.3,0.1-0.5,0.3-0.7l5.9-5.9
		C10.3,4.1,10.6,4,10.9,4H19.1 M19.1,1h-8.3C9.8,1,8.8,1.4,8,2.2L2.2,8C1.4,8.8,1,9.8,1,10.9v8.3c0,1.1,0.4,2.1,1.2,2.8L8,27.8
		c0.8,0.8,1.8,1.2,2.8,1.2h8.3c1.1,0,2.1-0.4,2.8-1.2l5.9-5.9c0.8-0.8,1.2-1.8,1.2-2.8v-8.3c0-1.1-0.4-2.1-1.2-2.8L22,2.2
		C21.2,1.4,20.2,1,19.1,1L19.1,1z"/>
</g>
</svg>
