<?xml version="1.0" encoding="utf-8"?>
<!-- Generator: Adobe Illustrator 22.1.0, SVG Export Plug-In . SVG Version: 6.00 Build 0)  -->
<svg version="1.1" id="Calque_1" xmlns="http://www.w3.org/2000/svg" xmlns:xlink="http://www.w3.org/1999/xlink" x="0px" y="0px"
	 width="30px" height="30px" viewBox="0 0 30 30" style="enable-background:new 0 0 30 30;" xml:space="preserve">
<style type="text/css">
	.st0{fill:#FFFFFF;}
</style>
<g>
	<path d="M15.1,0C15.1,0,15,0,15.1,0C15,0,15,0,14.9,0C15,0,15,0,15.1,0z"/>
	<path d="M15.8,0.1c1.9,0.3,3.8,1.6,4.8,3.8c1.6,3.4,0.6,7.6-2.3,9.4c-2.9,1.7-6.6,0.3-8.2-3.1c-1.4-3-0.7-6.1,0.1-7
		C5.1,5.1,3,11.4,3,15c0,6.5,3.5,9.9,7.8,11.9c-0.1-0.1-0.3-0.2-0.4-0.3c-2.7-2.1-1-6.6-0.6-7.4c1.9-3.2,6.2-4,8.9-1.8
		c2.7,2.1,3.2,6.4,1.2,9.6c-1.2,1.9-3.1,2.9-4.9,3c0,0,0.1,0,0.1,0c6.6,0,12-6.7,12-15C27,7.1,22.1,0.6,15.8,0.1z"/>
</g>
</svg>
