<?xml version="1.0" encoding="utf-8"?>
<!-- Generator: Adobe Illustrator 22.1.0, SVG Export Plug-In . SVG Version: 6.00 Build 0)  -->
<svg version="1.1" id="Calque_1" xmlns="http://www.w3.org/2000/svg" xmlns:xlink="http://www.w3.org/1999/xlink" x="0px" y="0px"
	 width="30px" height="30px" viewBox="0 0 30 30" style="enable-background:new 0 0 30 30;" xml:space="preserve">
<style type="text/css">
	.st0{fill:#FFFFFF;}
</style>
<g>
	<path d="M22.6,10.1c0-0.1-0.1-0.4-0.3-0.4c-0.2,0-0.3,0.2-0.3,0.4c-0.4,2.3-1.8,4.1-3.5,5.7c-2.1,1.9-4.5,3.3-7,4.6
		c-2,1-3.7,2.2-4.4,4.5c-0.1,0.3-0.1,0.5,0,1.6c0.2,1.1,0.4,1.6,0.9,2.1c0.3,0.3,0.7,1.1,2.6,1.5c1,0.1,1,0.1,1.7,0
		c1-0.1,1.6-0.5,2.2-0.9c2.5-1.6,2.4-4.7-0.2-6.2c-0.2-0.1-0.5-0.4-0.7-0.2c-0.4,0.3,0.2,0.7,0.4,1c0.5,0.9,0.4,2-0.3,2.8
		c-0.6,0.7-1.3,1-2.3,0.7c-1.5-0.4-2.1-2-1.3-3.3c0.8-1.2,2-1.9,3.3-2.3c1.4-0.5,2.8-0.9,4.1-1.5c2.3-1.1,4.1-2.6,4.8-5
		c0.1-0.4,0.3-0.9,0.4-1.3c0.1-0.8,0.1-1.6,0-2.3C22.9,10.9,22.7,10.5,22.6,10.1z"/>
	<path d="M15.8,7.2c-1.5,3.4-4.3,6.5-4,6.7c0.2,0.2,0.6,0,0.9-0.2c3.3-2.1,5.5-5,6.5-8.8c0.4-1.6,1.1-4.6-0.5-4.9
		c-0.1,0-0.2,0.1-0.3,0.2C18.3,0.2,17.6,3.2,15.8,7.2z"/>
	<path d="M12.8,17.8c2.1-1,3.9-2.4,5.5-4.1c1.4-1.5,2.5-3.2,2.8-5.2c0.2-1.2-0.1-4-0.8-3.4c-0.3,0.3,0.4,3-3,7
		c-4,4.7-5.6,5.2-5.3,5.8C11.9,18,12.5,17.9,12.8,17.8z"/>
</g>
</svg>
