<svg width="35" height="35" viewBox="0 0 35 35" fill="none" xmlns="http://www.w3.org/2000/svg">
<path d="M33.8158 15.5702L25.0439 10.8333C24.693 10.6579 24.3421 10.307 24.1667 9.95614L19.4298 1.18421C18.5526 -0.394737 16.4474 -0.394737 15.5702 1.18421L10.8333 9.95614C10.6579 10.307 10.307 10.6579 9.95614 10.8333L1.18421 15.5702C-0.394737 16.4474 -0.394737 18.5526 1.18421 19.4298L9.95614 24.1667C10.307 24.3421 10.6579 24.693 10.8333 25.0439L15.5702 33.8158C16.4474 35.3947 18.5526 35.3947 19.4298 33.8158L24.1667 25.0439C24.3421 24.693 24.693 24.3421 25.0439 24.1667L33.8158 19.4298C35.3947 18.5526 35.3947 16.4474 33.8158 15.5702ZM17.5 21.886C15.0439 21.886 13.114 19.9561 13.114 17.5C13.114 15.0439 15.0439 13.114 17.5 13.114C19.9561 13.114 21.886 15.0439 21.886 17.5C21.886 19.9561 19.9561 21.886 17.5 21.886Z" fill="url(#paint0_linear_346_149)"/>
<defs>
<linearGradient id="paint0_linear_346_149" x1="35" y1="-1.95578e-05" x2="-1.34185" y2="1.45365" gradientUnits="userSpaceOnUse">
<stop stop-color="#FFCD3C"/>
<stop offset="1" stop-color="#FD6900"/>
</linearGradient>
</defs>
</svg>
